<?xml version="1.0" encoding="utf-8"?>
<!-- Generator: Adobe Illustrator 17.1.0, SVG Export Plug-In . SVG Version: 6.00 Build 0)  -->
<!DOCTYPE svg PUBLIC "-//W3C//DTD SVG 1.1//EN" "http://www.w3.org/Graphics/SVG/1.1/DTD/svg11.dtd">
<svg version="1.1" id="Layer_1" xmlns="http://www.w3.org/2000/svg" xmlns:xlink="http://www.w3.org/1999/xlink" x="0px" y="0px"
	 viewBox="0 0 576.8 576.8" enable-background="new 0 0 576.8 576.8" xml:space="preserve">
<g>
	<g>
		<g>
			<g>
				<path fill="#AB0A0A" d="M358.9,425.9c0,0,0-35.2,0-68.7s0-68.7,0-68.7c0-20.1-8.4-38.6-20.1-52s-28.5-21.8-48.6-21.8
					c-20.1,0-38.6,8.4-52,21.8s-21.8,31.9-21.8,52s8.4,38.6,21.8,52c13.4,13.4,31.9,21.8,52,21.8c10.1,0,18.4-1.7,26.8-5
					c8.4-3.4,16.8-8.4,23.5-13.4c0,13.4,0,26.8,0,40.2c0,13.4,0,26.8,0,40.2c-8.4,3.4-15.1,5-23.5,6.7c-8.4,1.7-16.8,1.7-25.2,1.7
					c-40.2,0-75.5-16.8-102.3-41.9c-26.8-25.2-41.9-62-41.9-102.3s16.8-75.5,41.9-102.3c26.8-26.8,62-41.9,102.3-41.9
					c40.3,0,75.5,16.8,100.6,43.6c25.2,26.8,41.9,63.7,41.9,102.3c0,0,0,33.5,0,68.7c0,33.5,0,68.7,0,68.7"/>
			</g>
		</g>
	</g>
	<g>
		<path fill="#AB0A0A" d="M288.4,576.8c-77.1,0-149.2-30.2-204.6-83.8C28.5,437.7,0,365.6,0,288.4c0-77.1,30.2-149.2,83.8-204.6
			C139.1,28.5,211.2,0,288.4,0S437.6,30.2,493,83.8c55.3,55.3,83.8,127.4,83.8,204.6c0,77.1-30.2,149.2-83.8,204.6
			C437.7,546.6,365.6,576.8,288.4,576.8z M288.4,67C166,67,67.1,165.9,67.1,288.3S166,509.7,288.4,509.7s221.3-98.9,221.3-221.3
			S410.8,67,288.4,67z"/>
	</g>
</g>
</svg>
