<?xml version="1.0" encoding="utf-8"?>
<!-- Generator: Adobe Illustrator 17.1.0, SVG Export Plug-In . SVG Version: 6.00 Build 0)  -->
<!DOCTYPE svg PUBLIC "-//W3C//DTD SVG 1.1//EN" "http://www.w3.org/Graphics/SVG/1.1/DTD/svg11.dtd">
<svg version="1.1" id="Layer_1" xmlns="http://www.w3.org/2000/svg" xmlns:xlink="http://www.w3.org/1999/xlink" x="0px" y="0px"
	 viewBox="0 0 62.4 39.5" enable-background="new 0 0 62.4 39.5" xml:space="preserve">
<g>
	<path id="logo-c" fill="#F1F2F2" d="M22.8,13.1c0-3.1-0.3-5.5-0.9-7.1c-0.6-1.6-1.8-3-3.7-4.2C16.4,0.6,14,0,11.1,0
		C8.2,0,5.8,0.7,3.9,2.1C2.1,3.4,1,4.9,0.6,6.6C0.2,8.2,0,10.8,0,14.5v11.3c0,2.6,0.1,4.6,0.3,5.9c0.2,1.3,0.7,2.6,1.4,3.7
		c0.7,1.2,1.8,2.2,3.3,3c1.4,0.8,3,1.2,4.6,1.2c1.4,0,2.6-0.3,3.6-0.9c1-0.6,1.9-1.5,2.5-2.6l0.9,2.7h6.2V18.4H11.3v5.8h2v4.5
		c0,1.8-0.1,3-0.4,3.6c-0.3,0.6-0.7,0.9-1.5,0.9c-0.7,0-1.1-0.3-1.3-0.8c-0.2-0.5-0.3-1.7-0.3-3.4V10.7c0-1.9,0.1-3.1,0.3-3.6
		c0.2-0.5,0.6-0.7,1.2-0.7c0.7,0,1.1,0.3,1.3,0.8c0.2,0.5,0.3,1.9,0.3,4.1v3.4h9.8V13.1z"/>
	<path id="logo-g" fill="#F1F2F2" d="M49.2,13.1c0-3.1-0.3-5.5-0.9-7.1c-0.6-1.6-1.8-3-3.7-4.2C42.7,0.6,40.3,0,37.5,0
		c-2.9,0-5.3,0.7-7.2,2.1c-1.8,1.4-3,2.9-3.4,4.5c-0.4,1.6-0.6,4.3-0.6,7.9v11.3c0,2.6,0.1,4.6,0.3,5.9c0.2,1.3,0.7,2.6,1.4,3.7
		c0.7,1.2,1.8,2.2,3.3,3c1.4,0.8,3,1.2,4.6,1.2c1.4,0,2.6-0.3,3.6-0.9c1-0.6,1.9-1.5,2.5-2.6l0.9,2.7h6.2V18.4H37.7v5.8h2v4.5
		c0,1.8-0.1,3-0.4,3.6c-0.3,0.6-0.7,0.9-1.5,0.9c-0.7,0-1.1-0.3-1.3-0.8c-0.2-0.5-0.3-1.7-0.3-3.4V10.7c0-1.9,0.1-3.1,0.3-3.6
		c0.2-0.5,0.6-0.7,1.2-0.7c0.7,0,1.1,0.3,1.3,0.8c0.2,0.5,0.3,1.9,0.3,4.1v3.4h9.8V13.1z"/>
	<path id="logo-i" fill="#ED1C25" d="M52.7,0.8v4.9h9.7V0.8H52.7z M52.7,7.6v31.1h9.7V7.6H52.7z"/>
</g>
</svg>
